<?xml version="1.0" standalone="no"?>
<!DOCTYPE svg PUBLIC "-//W3C//DTD SVG 20010904//EN"
 "http://www.w3.org/TR/2001/REC-SVG-20010904/DTD/svg10.dtd">
<svg version="1.0" xmlns="http://www.w3.org/2000/svg"
 width="260.000000pt" height="260.000000pt" viewBox="0 0 260.000000 260.000000"
 preserveAspectRatio="xMidYMid meet">
<metadata>
Created by potrace 1.11, written by Peter Selinger 2001-2013
</metadata>
<g transform="translate(0.000000,260.000000) scale(0.100000,-0.100000)"
fill="#000000" stroke="none">
<path d="M118 2193 c-2 -16 -1 -45 1 -65 l3 -38 1194 0 1194 0 0 65 0 65
-1194 0 -1195 0 -3 -27z"/>
<path d="M1153 1740 c-3 -14 -14 -58 -24 -97 -25 -96 -25 -99 12 -99 30 0 34
4 80 102 27 56 49 106 49 111 0 5 -25 8 -55 8 -51 0 -56 -2 -62 -25z"/>
<path d="M1369 1745 c-17 -40 -50 -186 -44 -196 11 -16 75 2 75 21 0 5 17 44
38 87 57 117 57 108 -6 108 -45 0 -56 -3 -63 -20z"/>
<path d="M1571 1674 c-12 -24 -21 -47 -21 -51 0 -5 26 -19 56 -33 87 -38 88
-42 89 -259 l0 -186 -90 -2 c-49 -1 -100 -2 -111 -2 -17 -1 -24 -11 -33 -43
-7 -24 -15 -49 -17 -55 -4 -10 30 -13 154 -13 l160 0 19 58 c17 49 19 84 18
262 -2 161 -5 213 -18 242 -16 38 -64 74 -142 108 l-43 19 -21 -45z"/>
<path d="M1946 1701 c-4 -6 -13 -31 -20 -56 -14 -46 -10 -53 28 -46 4 1 16 -1
25 -4 15 -4 17 -17 16 -78 -1 -115 13 -211 51 -344 6 -23 5 -23 -78 -23 l-84
0 -17 -47 c-9 -27 -17 -52 -17 -58 0 -6 53 -10 138 -10 l137 0 18 55 c19 54
19 56 -3 115 -34 95 -45 168 -45 305 l0 85 130 -1 c72 0 142 -3 157 -7 43 -11
49 -51 50 -311 0 -165 4 -236 12 -238 6 -2 27 -4 46 -4 l35 1 3 245 c1 154 -2
265 -9 300 -13 64 -46 100 -108 116 -56 15 -457 19 -465 5z"/>
<path d="M561 1680 c-3 -3 -12 -23 -20 -45 -8 -22 -16 -46 -18 -52 -4 -10 38
-13 189 -13 l195 0 1 -352 c0 -194 1 -359 1 -366 1 -9 15 -12 49 -10 l47 3 0
418 c1 412 0 417 -20 418 -85 4 -418 3 -424 -1z"/>
<path d="M258 1514 c-6 -6 0 -141 7 -161 6 -19 -2 -17 -91 21 l-81 34 -16 -51
c-12 -36 -13 -53 -6 -58 6 -4 47 -14 90 -24 l79 -17 -53 -61 c-28 -34 -56 -65
-60 -68 -5 -3 11 -22 34 -42 l43 -35 24 31 c13 18 35 54 49 81 l25 49 48 -77
c27 -42 54 -76 60 -76 13 0 80 52 80 62 0 3 -27 35 -59 70 l-60 63 57 13 c132
29 130 27 107 86 -10 25 -23 46 -30 46 -15 0 -117 -40 -129 -52 -12 -10 -39
-11 -33 0 3 4 8 44 12 90 l7 82 -49 0 c-28 0 -52 -3 -55 -6z"/>
<path d="M119 570 c0 -5 -1 -26 -1 -45 0 -19 1 -44 1 -55 1 -20 8 -20 1196
-20 l1195 0 0 65 0 65 -1195 0 c-789 0 -1195 -3 -1196 -10z"/>
</g>
</svg>
